<svg width="351" height="91" viewBox="0 0 351 91" fill="none" xmlns="http://www.w3.org/2000/svg">
<g clip-path="url(#clip0_1_197)">
<g filter="url(#filter0_d_1_197)">
<rect width="351" height="91" rx="10" fill="#161C2D"/>
</g>
<circle cx="43.5" cy="45.5" r="19.5" fill="#68D585"/>
<path d="M43.8572 54.1429C44.9176 54.1405 45.8224 53.2357 46 52H41.7143C41.8919 53.2357 42.7967 54.1405 43.8572 54.1429Z" fill="#2D2D2D"/>
<path d="M50.9302 50.7066C50.9122 50.6821 49.125 48.2088 49.125 46.1575V42.4945C49.125 39.46 46.6066 37 43.5 37C40.3934 37 37.875 39.46 37.875 42.4945V46.1575C37.875 48.2088 36.0878 50.6821 36.0698 50.7066C35.9882 50.8183 35.9773 50.9651 36.0416 51.0871C36.1059 51.2091 36.2346 51.2857 36.375 51.2857H50.625C50.7654 51.2857 50.8941 51.2091 50.9584 51.0871C51.0227 50.9651 51.0118 50.8183 50.9302 50.7066Z" fill="#2D2D2D"/>
<path opacity="0.7" d="M87.4409 24.3359V35H86.02L80.6514 26.7749V35H79.2378V24.3359H80.6514L86.042 32.583V24.3359H87.4409ZM92.9293 35.1465C92.3775 35.1465 91.8771 35.0537 91.4278 34.8682C90.9835 34.6777 90.6002 34.4116 90.2779 34.0698C89.9605 33.728 89.7164 33.3228 89.5455 32.854C89.3746 32.3853 89.2892 31.8726 89.2892 31.3159V31.0083C89.2892 30.3638 89.3844 29.79 89.5748 29.2871C89.7652 28.7793 90.024 28.3496 90.3512 27.998C90.6783 27.6465 91.0494 27.3804 91.4645 27.1997C91.8795 27.019 92.3092 26.9287 92.7535 26.9287C93.3199 26.9287 93.8082 27.0264 94.2184 27.2217C94.6334 27.417 94.9728 27.6904 95.2364 28.042C95.5001 28.3887 95.6954 28.7988 95.8224 29.2725C95.9493 29.7412 96.0128 30.2539 96.0128 30.8105V31.4185H90.0948V30.3125H94.6578V30.21C94.6383 29.8584 94.565 29.5166 94.4381 29.1846C94.316 28.8525 94.1207 28.5791 93.8521 28.3643C93.5836 28.1494 93.2174 28.042 92.7535 28.042C92.4459 28.042 92.1627 28.1079 91.9039 28.2397C91.6451 28.3667 91.4229 28.5571 91.2374 28.811C91.0519 29.0649 90.9078 29.375 90.8053 29.7412C90.7027 30.1074 90.6515 30.5298 90.6515 31.0083V31.3159C90.6515 31.6919 90.7027 32.0459 90.8053 32.3779C90.9127 32.7051 91.0665 32.9932 91.2667 33.2422C91.4718 33.4912 91.7184 33.6865 92.0064 33.8281C92.2994 33.9697 92.6314 34.0405 93.0025 34.0405C93.4811 34.0405 93.8863 33.9429 94.2184 33.7476C94.5504 33.5522 94.8409 33.291 95.0899 32.9639L95.9103 33.6157C95.7394 33.8745 95.5221 34.1211 95.2584 34.3555C94.9947 34.5898 94.67 34.7803 94.2843 34.9268C93.9034 35.0732 93.4518 35.1465 92.9293 35.1465ZM99.5017 33.5938L101.538 27.0752H102.431L102.256 28.3716L100.183 35H99.3112L99.5017 33.5938ZM98.132 27.0752L99.8679 33.667L99.9924 35H99.0769L96.7771 27.0752H98.132ZM104.38 33.6157L106.035 27.0752H107.383L105.083 35H104.175L104.38 33.6157ZM102.629 27.0752L104.621 33.4839L104.848 35H103.984L101.853 28.3569L101.677 27.0752H102.629ZM114.016 24.3359V35H112.602V24.3359H114.016ZM117.637 28.7671V35H116.282V27.0752H117.563L117.637 28.7671ZM117.314 30.7373L116.75 30.7153C116.755 30.1733 116.836 29.6729 116.992 29.2139C117.148 28.75 117.368 28.3472 117.651 28.0054C117.935 27.6636 118.271 27.3999 118.662 27.2144C119.058 27.0239 119.495 26.9287 119.973 26.9287C120.364 26.9287 120.715 26.9824 121.028 27.0898C121.34 27.1924 121.606 27.3584 121.826 27.5879C122.051 27.8174 122.222 28.1152 122.339 28.4814C122.456 28.8428 122.515 29.2847 122.515 29.8071V35H121.152V29.7925C121.152 29.3774 121.091 29.0454 120.969 28.7964C120.847 28.5425 120.669 28.3594 120.435 28.2471C120.2 28.1299 119.912 28.0713 119.57 28.0713C119.233 28.0713 118.926 28.1421 118.647 28.2837C118.374 28.4253 118.137 28.6206 117.937 28.8696C117.742 29.1187 117.588 29.4043 117.476 29.7266C117.368 30.0439 117.314 30.3809 117.314 30.7373ZM126.882 33.7769L129.05 27.0752H130.435L127.586 35H126.677L126.882 33.7769ZM125.073 27.0752L127.307 33.8135L127.461 35H126.553L123.682 27.0752H125.073ZM133.111 27.0752V35H131.748V27.0752H133.111ZM131.646 24.9731C131.646 24.7534 131.712 24.5679 131.843 24.4165C131.98 24.2651 132.18 24.1895 132.444 24.1895C132.703 24.1895 132.901 24.2651 133.037 24.4165C133.179 24.5679 133.25 24.7534 133.25 24.9731C133.25 25.1831 133.179 25.3638 133.037 25.5151C132.901 25.6616 132.703 25.7349 132.444 25.7349C132.18 25.7349 131.98 25.6616 131.843 25.5151C131.712 25.3638 131.646 25.1831 131.646 24.9731ZM138.504 27.0752V28.1152H134.219V27.0752H138.504ZM135.669 25.1489H137.024V33.0371C137.024 33.3057 137.066 33.5083 137.149 33.645C137.232 33.7817 137.339 33.8721 137.471 33.916C137.603 33.96 137.744 33.9819 137.896 33.9819C138.008 33.9819 138.125 33.9722 138.247 33.9526C138.374 33.9282 138.47 33.9087 138.533 33.894L138.54 35C138.433 35.0342 138.291 35.0659 138.116 35.0952C137.945 35.1294 137.737 35.1465 137.493 35.1465C137.161 35.1465 136.856 35.0806 136.577 34.9487C136.299 34.8169 136.077 34.5972 135.911 34.2896C135.75 33.9771 135.669 33.5571 135.669 33.0298V25.1489ZM144.666 33.645V29.5654C144.666 29.2529 144.602 28.9819 144.475 28.7524C144.353 28.5181 144.168 28.3374 143.919 28.2104C143.67 28.0835 143.362 28.02 142.996 28.02C142.654 28.02 142.354 28.0786 142.095 28.1958C141.841 28.313 141.641 28.4668 141.495 28.6572C141.353 28.8477 141.282 29.0527 141.282 29.2725H139.927C139.927 28.9893 140 28.7085 140.147 28.4302C140.293 28.1519 140.503 27.9004 140.777 27.6758C141.055 27.4463 141.387 27.2656 141.773 27.1338C142.163 26.9971 142.598 26.9287 143.077 26.9287C143.653 26.9287 144.161 27.0264 144.6 27.2217C145.044 27.417 145.391 27.7124 145.64 28.1079C145.894 28.4985 146.021 28.9893 146.021 29.5801V33.2715C146.021 33.5352 146.043 33.8159 146.087 34.1138C146.136 34.4116 146.206 34.668 146.299 34.8828V35H144.886C144.817 34.8438 144.764 34.6362 144.725 34.3774C144.685 34.1138 144.666 33.8696 144.666 33.645ZM144.9 30.1953L144.915 31.1475H143.545C143.16 31.1475 142.815 31.1792 142.513 31.2427C142.21 31.3013 141.956 31.3916 141.751 31.5137C141.546 31.6357 141.39 31.7896 141.282 31.9751C141.175 32.1558 141.121 32.3682 141.121 32.6123C141.121 32.8613 141.177 33.0884 141.289 33.2935C141.402 33.4985 141.57 33.6621 141.795 33.7842C142.024 33.9014 142.305 33.96 142.637 33.96C143.052 33.96 143.418 33.8721 143.736 33.6963C144.053 33.5205 144.305 33.3057 144.49 33.0518C144.681 32.7979 144.783 32.5513 144.798 32.312L145.376 32.9639C145.342 33.1689 145.249 33.396 145.098 33.645C144.947 33.894 144.744 34.1333 144.49 34.3628C144.241 34.5874 143.943 34.7754 143.597 34.9268C143.255 35.0732 142.869 35.1465 142.439 35.1465C141.902 35.1465 141.431 35.0415 141.026 34.8315C140.625 34.6216 140.313 34.3408 140.088 33.9893C139.869 33.6328 139.759 33.2349 139.759 32.7954C139.759 32.3706 139.842 31.9971 140.008 31.6748C140.174 31.3477 140.413 31.0767 140.725 30.8618C141.038 30.6421 141.414 30.4761 141.853 30.3638C142.293 30.2515 142.784 30.1953 143.326 30.1953H144.9ZM151.37 27.0752V28.1152H147.085V27.0752H151.37ZM148.536 25.1489H149.891V33.0371C149.891 33.3057 149.932 33.5083 150.015 33.645C150.098 33.7817 150.206 33.8721 150.337 33.916C150.469 33.96 150.611 33.9819 150.762 33.9819C150.875 33.9819 150.992 33.9722 151.114 33.9526C151.241 33.9282 151.336 33.9087 151.399 33.894L151.407 35C151.299 35.0342 151.158 35.0659 150.982 35.0952C150.811 35.1294 150.604 35.1465 150.359 35.1465C150.027 35.1465 149.722 35.0806 149.444 34.9487C149.166 34.8169 148.943 34.5972 148.777 34.2896C148.616 33.9771 148.536 33.5571 148.536 33.0298V25.1489ZM154.332 27.0752V35H152.969V27.0752H154.332ZM152.867 24.9731C152.867 24.7534 152.933 24.5679 153.065 24.4165C153.201 24.2651 153.401 24.1895 153.665 24.1895C153.924 24.1895 154.122 24.2651 154.258 24.4165C154.4 24.5679 154.471 24.7534 154.471 24.9731C154.471 25.1831 154.4 25.3638 154.258 25.5151C154.122 25.6616 153.924 25.7349 153.665 25.7349C153.401 25.7349 153.201 25.6616 153.065 25.5151C152.933 25.3638 152.867 25.1831 152.867 24.9731ZM156.048 31.1255V30.957C156.048 30.3857 156.131 29.856 156.297 29.3677C156.463 28.8745 156.702 28.4473 157.015 28.0859C157.327 27.7197 157.706 27.4365 158.15 27.2363C158.594 27.0312 159.092 26.9287 159.644 26.9287C160.201 26.9287 160.701 27.0312 161.146 27.2363C161.595 27.4365 161.976 27.7197 162.288 28.0859C162.606 28.4473 162.847 28.8745 163.013 29.3677C163.179 29.856 163.262 30.3857 163.262 30.957V31.1255C163.262 31.6968 163.179 32.2266 163.013 32.7148C162.847 33.2031 162.606 33.6304 162.288 33.9966C161.976 34.3579 161.597 34.6411 161.153 34.8462C160.714 35.0464 160.216 35.1465 159.659 35.1465C159.102 35.1465 158.602 35.0464 158.157 34.8462C157.713 34.6411 157.332 34.3579 157.015 33.9966C156.702 33.6304 156.463 33.2031 156.297 32.7148C156.131 32.2266 156.048 31.6968 156.048 31.1255ZM157.403 30.957V31.1255C157.403 31.521 157.449 31.8945 157.542 32.2461C157.635 32.5928 157.774 32.9004 157.96 33.1689C158.15 33.4375 158.387 33.6499 158.67 33.8062C158.953 33.9575 159.283 34.0332 159.659 34.0332C160.03 34.0332 160.355 33.9575 160.633 33.8062C160.916 33.6499 161.151 33.4375 161.336 33.1689C161.522 32.9004 161.661 32.5928 161.754 32.2461C161.851 31.8945 161.9 31.521 161.9 31.1255V30.957C161.9 30.5664 161.851 30.1978 161.754 29.8511C161.661 29.4995 161.519 29.1895 161.329 28.9209C161.143 28.6475 160.909 28.4326 160.626 28.2764C160.347 28.1201 160.02 28.042 159.644 28.042C159.273 28.042 158.946 28.1201 158.663 28.2764C158.384 28.4326 158.15 28.6475 157.96 28.9209C157.774 29.1895 157.635 29.4995 157.542 29.8511C157.449 30.1978 157.403 30.5664 157.403 30.957ZM166.217 28.7671V35H164.862V27.0752H166.143L166.217 28.7671ZM165.894 30.7373L165.33 30.7153C165.335 30.1733 165.416 29.6729 165.572 29.2139C165.728 28.75 165.948 28.3472 166.231 28.0054C166.514 27.6636 166.851 27.3999 167.242 27.2144C167.637 27.0239 168.075 26.9287 168.553 26.9287C168.944 26.9287 169.295 26.9824 169.608 27.0898C169.92 27.1924 170.186 27.3584 170.406 27.5879C170.631 27.8174 170.802 28.1152 170.919 28.4814C171.036 28.8428 171.095 29.2847 171.095 29.8071V35H169.732V29.7925C169.732 29.3774 169.671 29.0454 169.549 28.7964C169.427 28.5425 169.249 28.3594 169.014 28.2471C168.78 28.1299 168.492 28.0713 168.15 28.0713C167.813 28.0713 167.506 28.1421 167.227 28.2837C166.954 28.4253 166.717 28.6206 166.517 28.8696C166.322 29.1187 166.168 29.4043 166.055 29.7266C165.948 30.0439 165.894 30.3809 165.894 30.7373ZM174.664 24.3359L174.569 31.9897H173.346L173.243 24.3359H174.664ZM173.199 34.3188C173.199 34.0991 173.265 33.9136 173.397 33.7622C173.534 33.6108 173.734 33.5352 173.997 33.5352C174.256 33.5352 174.454 33.6108 174.591 33.7622C174.732 33.9136 174.803 34.0991 174.803 34.3188C174.803 34.5288 174.732 34.7095 174.591 34.8608C174.454 35.0122 174.256 35.0879 173.997 35.0879C173.734 35.0879 173.534 35.0122 173.397 34.8608C173.265 34.7095 173.199 34.5288 173.199 34.3188Z" fill="white"/>
<path d="M81.7271 50.9141V63H79.2451V50.9141H81.7271ZM86.051 55.936V63H83.6604V54.0186H85.9016L86.051 55.936ZM85.7023 58.1938H85.0549C85.0549 57.5298 85.1407 56.9321 85.3122 56.4009C85.4838 55.8641 85.7245 55.4076 86.0344 55.0312C86.3443 54.6494 86.7123 54.3589 87.1384 54.1597C87.57 53.9549 88.0515 53.8525 88.5827 53.8525C89.0033 53.8525 89.3879 53.9134 89.7365 54.0352C90.0852 54.1569 90.384 54.3506 90.633 54.6162C90.8876 54.8818 91.0813 55.2332 91.2141 55.6704C91.3524 56.1076 91.4216 56.6416 91.4216 57.2725V63H89.0144V57.2642C89.0144 56.8657 88.959 56.5558 88.8483 56.3345C88.7377 56.1131 88.5744 55.9582 88.3586 55.8696C88.1483 55.7756 87.8882 55.7285 87.5783 55.7285C87.2574 55.7285 86.9779 55.7922 86.7399 55.9194C86.5075 56.0467 86.3138 56.2238 86.1589 56.4507C86.0095 56.672 85.896 56.9321 85.8186 57.231C85.7411 57.5298 85.7023 57.8507 85.7023 58.1938ZM97.4389 54.0186V55.7119H92.2094V54.0186H97.4389ZM93.5043 51.8022H95.8949V60.2939C95.8949 60.554 95.9281 60.7533 95.9945 60.8916C96.0665 61.0299 96.1716 61.1268 96.31 61.1821C96.4483 61.2319 96.6226 61.2568 96.8329 61.2568C96.9823 61.2568 97.1151 61.2513 97.2313 61.2402C97.3531 61.2236 97.4555 61.207 97.5385 61.1904L97.5468 62.9502C97.342 63.0166 97.1207 63.0692 96.8827 63.1079C96.6448 63.1466 96.3819 63.166 96.0941 63.166C95.5684 63.166 95.1091 63.0802 94.7162 62.9087C94.3288 62.7316 94.03 62.4494 93.8197 62.062C93.6094 61.6746 93.5043 61.1655 93.5043 60.5347V51.8022ZM102.734 63.166C102.037 63.166 101.411 63.0553 100.858 62.834C100.305 62.6071 99.8342 62.2944 99.4469 61.896C99.065 61.4976 98.7717 61.0355 98.567 60.5098C98.3622 59.9785 98.2599 59.4141 98.2599 58.8164V58.4844C98.2599 57.8037 98.3567 57.1812 98.5504 56.6167C98.7441 56.0522 99.0208 55.5625 99.3805 55.1475C99.7457 54.7324 100.188 54.4142 100.709 54.1929C101.229 53.966 101.815 53.8525 102.468 53.8525C103.105 53.8525 103.669 53.9577 104.162 54.168C104.654 54.3783 105.067 54.6771 105.399 55.0645C105.736 55.4518 105.991 55.9167 106.162 56.459C106.334 56.9958 106.42 57.5934 106.42 58.252V59.248H99.2809V57.6543H104.07V57.4717C104.07 57.1396 104.01 56.8436 103.888 56.5835C103.772 56.3179 103.594 56.1076 103.357 55.9526C103.119 55.7977 102.814 55.7202 102.443 55.7202C102.128 55.7202 101.857 55.7894 101.63 55.9277C101.403 56.0661 101.218 56.2598 101.074 56.5088C100.935 56.7578 100.83 57.0511 100.758 57.3887C100.692 57.7207 100.659 58.0859 100.659 58.4844V58.8164C100.659 59.1761 100.709 59.5081 100.808 59.8125C100.913 60.1169 101.06 60.3797 101.248 60.6011C101.442 60.8224 101.674 60.994 101.945 61.1157C102.222 61.2375 102.535 61.2983 102.883 61.2983C103.315 61.2983 103.716 61.2153 104.087 61.0493C104.463 60.8778 104.787 60.6204 105.058 60.2773L106.22 61.5391C106.032 61.8102 105.775 62.0703 105.448 62.3193C105.127 62.5684 104.74 62.7731 104.286 62.9336C103.832 63.0885 103.315 63.166 102.734 63.166ZM109.971 55.9775V63H107.581V54.0186H109.83L109.971 55.9775ZM112.678 53.9604L112.636 56.1768C112.52 56.1602 112.379 56.1463 112.213 56.1353C112.052 56.1187 111.906 56.1104 111.773 56.1104C111.435 56.1104 111.142 56.1546 110.893 56.2432C110.649 56.3262 110.445 56.4507 110.279 56.6167C110.118 56.7827 109.996 56.9847 109.913 57.2227C109.836 57.4606 109.792 57.7318 109.781 58.0361L109.299 57.8867C109.299 57.3057 109.357 56.7716 109.473 56.2847C109.59 55.7922 109.758 55.3633 109.98 54.998C110.207 54.6328 110.483 54.3506 110.81 54.1514C111.136 53.9521 111.51 53.8525 111.93 53.8525C112.063 53.8525 112.199 53.8636 112.337 53.8857C112.476 53.9023 112.589 53.9272 112.678 53.9604ZM116.811 61.2568L118.803 54.0186H121.301L118.271 63H116.761L116.811 61.2568ZM115.441 54.0186L117.441 61.2651L117.483 63H115.964L112.934 54.0186H115.441ZM124.696 54.0186V63H122.297V54.0186H124.696ZM122.147 51.6777C122.147 51.3291 122.269 51.0413 122.512 50.8145C122.756 50.5876 123.082 50.4741 123.492 50.4741C123.896 50.4741 124.22 50.5876 124.463 50.8145C124.712 51.0413 124.837 51.3291 124.837 51.6777C124.837 52.0264 124.712 52.3141 124.463 52.541C124.22 52.7679 123.896 52.8813 123.492 52.8813C123.082 52.8813 122.756 52.7679 122.512 52.541C122.269 52.3141 122.147 52.0264 122.147 51.6777ZM130.605 63.166C129.908 63.166 129.282 63.0553 128.729 62.834C128.176 62.6071 127.705 62.2944 127.318 61.896C126.936 61.4976 126.643 61.0355 126.438 60.5098C126.233 59.9785 126.131 59.4141 126.131 58.8164V58.4844C126.131 57.8037 126.228 57.1812 126.421 56.6167C126.615 56.0522 126.892 55.5625 127.251 55.1475C127.617 54.7324 128.059 54.4142 128.579 54.1929C129.1 53.966 129.686 53.8525 130.339 53.8525C130.976 53.8525 131.54 53.9577 132.033 54.168C132.525 54.3783 132.937 54.6771 133.269 55.0645C133.607 55.4518 133.862 55.9167 134.033 56.459C134.205 56.9958 134.29 57.5934 134.29 58.252V59.248H127.152V57.6543H131.941V57.4717C131.941 57.1396 131.88 56.8436 131.759 56.5835C131.642 56.3179 131.465 56.1076 131.227 55.9526C130.989 55.7977 130.685 55.7202 130.314 55.7202C129.999 55.7202 129.728 55.7894 129.501 55.9277C129.274 56.0661 129.089 56.2598 128.945 56.5088C128.806 56.7578 128.701 57.0511 128.629 57.3887C128.563 57.7207 128.53 58.0859 128.53 58.4844V58.8164C128.53 59.1761 128.579 59.5081 128.679 59.8125C128.784 60.1169 128.931 60.3797 129.119 60.6011C129.313 60.8224 129.545 60.994 129.816 61.1157C130.093 61.2375 130.406 61.2983 130.754 61.2983C131.186 61.2983 131.587 61.2153 131.958 61.0493C132.334 60.8778 132.658 60.6204 132.929 60.2773L134.091 61.5391C133.903 61.8102 133.646 62.0703 133.319 62.3193C132.998 62.5684 132.611 62.7731 132.157 62.9336C131.703 63.0885 131.186 63.166 130.605 63.166ZM138.017 60.6758L139.884 54.0186H141.403L140.914 56.6333L139.046 63H137.776L138.017 60.6758ZM137.07 54.0186L138.407 60.6675L138.531 63H137.037L134.763 54.0186H137.07ZM143.113 60.5596L144.417 54.0186H146.733L144.458 63H142.972L143.113 60.5596ZM141.611 54.0186L143.47 60.626L143.728 63H142.449L140.582 56.6416L140.108 54.0186H141.611ZM154.293 54.0186V63H151.894V54.0186H154.293ZM151.745 51.6777C151.745 51.3291 151.866 51.0413 152.11 50.8145C152.353 50.5876 152.68 50.4741 153.089 50.4741C153.493 50.4741 153.817 50.5876 154.061 50.8145C154.31 51.0413 154.434 51.3291 154.434 51.6777C154.434 52.0264 154.31 52.3141 154.061 52.541C153.817 52.7679 153.493 52.8813 153.089 52.8813C152.68 52.8813 152.353 52.7679 152.11 52.541C151.866 52.3141 151.745 52.0264 151.745 51.6777ZM158.409 55.936V63H156.019V54.0186H158.26L158.409 55.936ZM158.061 58.1938H157.413C157.413 57.5298 157.499 56.9321 157.671 56.4009C157.842 55.8641 158.083 55.4076 158.393 55.0312C158.703 54.6494 159.071 54.3589 159.497 54.1597C159.928 53.9549 160.41 53.8525 160.941 53.8525C161.362 53.8525 161.746 53.9134 162.095 54.0352C162.444 54.1569 162.742 54.3506 162.991 54.6162C163.246 54.8818 163.44 55.2332 163.572 55.6704C163.711 56.1076 163.78 56.6416 163.78 57.2725V63H161.373V57.2642C161.373 56.8657 161.317 56.5558 161.207 56.3345C161.096 56.1131 160.933 55.9582 160.717 55.8696C160.507 55.7756 160.247 55.7285 159.937 55.7285C159.616 55.7285 159.336 55.7922 159.098 55.9194C158.866 56.0467 158.672 56.2238 158.517 56.4507C158.368 56.672 158.254 56.9321 158.177 57.231C158.099 57.5298 158.061 57.8507 158.061 58.1938ZM168.453 61.2568L170.445 54.0186H172.943L169.913 63H168.403L168.453 61.2568ZM167.083 54.0186L169.083 61.2651L169.125 63H167.606L164.576 54.0186H167.083ZM176.338 54.0186V63H173.939V54.0186H176.338ZM173.789 51.6777C173.789 51.3291 173.911 51.0413 174.154 50.8145C174.398 50.5876 174.724 50.4741 175.134 50.4741C175.538 50.4741 175.862 50.5876 176.105 50.8145C176.354 51.0413 176.479 51.3291 176.479 51.6777C176.479 52.0264 176.354 52.3141 176.105 52.541C175.862 52.7679 175.538 52.8813 175.134 52.8813C174.724 52.8813 174.398 52.7679 174.154 52.541C173.911 52.3141 173.789 52.0264 173.789 51.6777ZM182.512 54.0186V55.7119H177.283V54.0186H182.512ZM178.578 51.8022H180.969V60.2939C180.969 60.554 181.002 60.7533 181.068 60.8916C181.14 61.0299 181.245 61.1268 181.384 61.1821C181.522 61.2319 181.696 61.2568 181.907 61.2568C182.056 61.2568 182.189 61.2513 182.305 61.2402C182.427 61.2236 182.529 61.207 182.612 61.1904L182.62 62.9502C182.416 63.0166 182.194 63.0692 181.956 63.1079C181.718 63.1466 181.456 63.166 181.168 63.166C180.642 63.166 180.183 63.0802 179.79 62.9087C179.402 62.7316 179.104 62.4494 178.893 62.062C178.683 61.6746 178.578 61.1655 178.578 60.5347V51.8022ZM188.521 60.9746V56.9736C188.521 56.6859 188.474 56.4396 188.38 56.2349C188.286 56.0246 188.14 55.8613 187.94 55.7451C187.747 55.6289 187.495 55.5708 187.185 55.5708C186.919 55.5708 186.69 55.6178 186.496 55.7119C186.302 55.8005 186.153 55.9305 186.048 56.1021C185.943 56.2681 185.89 56.4645 185.89 56.6914H183.5C183.5 56.3096 183.588 55.9471 183.765 55.604C183.942 55.2609 184.2 54.9593 184.537 54.6992C184.875 54.4336 185.276 54.2261 185.741 54.0767C186.211 53.9272 186.737 53.8525 187.318 53.8525C188.015 53.8525 188.635 53.9688 189.177 54.2012C189.72 54.4336 190.146 54.7822 190.456 55.2471C190.771 55.7119 190.929 56.293 190.929 56.9902V60.8335C190.929 61.326 190.959 61.73 191.02 62.0454C191.081 62.3553 191.169 62.6265 191.286 62.8589V63H188.87C188.754 62.7565 188.665 62.4521 188.604 62.0869C188.549 61.7161 188.521 61.3454 188.521 60.9746ZM188.837 57.5298L188.854 58.8828H187.517C187.202 58.8828 186.928 58.9188 186.695 58.9907C186.463 59.0627 186.272 59.165 186.123 59.2979C185.973 59.4251 185.862 59.5745 185.791 59.7461C185.724 59.9176 185.691 60.1058 185.691 60.3105C185.691 60.5153 185.738 60.7007 185.832 60.8667C185.926 61.0272 186.062 61.1545 186.239 61.2485C186.416 61.3371 186.623 61.3813 186.861 61.3813C187.221 61.3813 187.534 61.3094 187.799 61.1655C188.065 61.0216 188.27 60.8446 188.414 60.6343C188.563 60.424 188.64 60.2248 188.646 60.0366L189.277 61.0493C189.188 61.2762 189.067 61.5114 188.912 61.7549C188.762 61.9984 188.571 62.228 188.339 62.4438C188.106 62.6541 187.827 62.8285 187.5 62.9668C187.174 63.0996 186.787 63.166 186.338 63.166C185.768 63.166 185.251 63.0526 184.786 62.8257C184.327 62.5933 183.962 62.2751 183.69 61.8711C183.425 61.4616 183.292 60.9967 183.292 60.4766C183.292 60.0062 183.381 59.5884 183.558 59.2231C183.735 58.8579 183.995 58.5508 184.338 58.3018C184.687 58.0472 185.121 57.8563 185.641 57.729C186.161 57.5962 186.764 57.5298 187.451 57.5298H188.837ZM196.971 54.0186V55.7119H191.741V54.0186H196.971ZM193.036 51.8022H195.427V60.2939C195.427 60.554 195.46 60.7533 195.527 60.8916C195.599 61.0299 195.704 61.1268 195.842 61.1821C195.98 61.2319 196.155 61.2568 196.365 61.2568C196.514 61.2568 196.647 61.2513 196.763 61.2402C196.885 61.2236 196.988 61.207 197.071 61.1904L197.079 62.9502C196.874 63.0166 196.653 63.0692 196.415 63.1079C196.177 63.1466 195.914 63.166 195.626 63.166C195.1 63.166 194.641 63.0802 194.248 62.9087C193.861 62.7316 193.562 62.4494 193.352 62.062C193.141 61.6746 193.036 61.1655 193.036 60.5347V51.8022ZM200.656 54.0186V63H198.257V54.0186H200.656ZM198.107 51.6777C198.107 51.3291 198.229 51.0413 198.473 50.8145C198.716 50.5876 199.043 50.4741 199.452 50.4741C199.856 50.4741 200.18 50.5876 200.423 50.8145C200.672 51.0413 200.797 51.3291 200.797 51.6777C200.797 52.0264 200.672 52.3141 200.423 52.541C200.18 52.7679 199.856 52.8813 199.452 52.8813C199.043 52.8813 198.716 52.7679 198.473 52.541C198.229 52.3141 198.107 52.0264 198.107 51.6777ZM202.049 58.6006V58.4263C202.049 57.7677 202.143 57.1618 202.332 56.6084C202.52 56.0495 202.794 55.5653 203.153 55.1558C203.513 54.7463 203.956 54.4281 204.482 54.2012C205.007 53.9688 205.61 53.8525 206.291 53.8525C206.972 53.8525 207.578 53.9688 208.109 54.2012C208.64 54.4281 209.086 54.7463 209.445 55.1558C209.811 55.5653 210.087 56.0495 210.275 56.6084C210.464 57.1618 210.558 57.7677 210.558 58.4263V58.6006C210.558 59.2536 210.464 59.8595 210.275 60.4185C210.087 60.9718 209.811 61.4561 209.445 61.8711C209.086 62.2806 208.643 62.5988 208.117 62.8257C207.592 63.0526 206.988 63.166 206.308 63.166C205.627 63.166 205.021 63.0526 204.49 62.8257C203.964 62.5988 203.519 62.2806 203.153 61.8711C202.794 61.4561 202.52 60.9718 202.332 60.4185C202.143 59.8595 202.049 59.2536 202.049 58.6006ZM204.44 58.4263V58.6006C204.44 58.9769 204.473 59.3283 204.54 59.6548C204.606 59.9813 204.711 60.269 204.855 60.5181C205.004 60.7616 205.198 60.9525 205.436 61.0908C205.674 61.2292 205.965 61.2983 206.308 61.2983C206.64 61.2983 206.925 61.2292 207.163 61.0908C207.401 60.9525 207.592 60.7616 207.735 60.5181C207.879 60.269 207.984 59.9813 208.051 59.6548C208.123 59.3283 208.159 58.9769 208.159 58.6006V58.4263C208.159 58.061 208.123 57.7179 208.051 57.397C207.984 57.0705 207.877 56.7827 207.727 56.5337C207.583 56.2791 207.392 56.0799 207.154 55.936C206.916 55.7922 206.629 55.7202 206.291 55.7202C205.954 55.7202 205.666 55.7922 205.428 55.936C205.195 56.0799 205.004 56.2791 204.855 56.5337C204.711 56.7827 204.606 57.0705 204.54 57.397C204.473 57.7179 204.44 58.061 204.44 58.4263ZM214.168 55.936V63H211.777V54.0186H214.018L214.168 55.936ZM213.819 58.1938H213.172C213.172 57.5298 213.257 56.9321 213.429 56.4009C213.601 55.8641 213.841 55.4076 214.151 55.0312C214.461 54.6494 214.829 54.3589 215.255 54.1597C215.687 53.9549 216.168 53.8525 216.7 53.8525C217.12 53.8525 217.505 53.9134 217.853 54.0352C218.202 54.1569 218.501 54.3506 218.75 54.6162C219.004 54.8818 219.198 55.2332 219.331 55.6704C219.469 56.1076 219.538 56.6416 219.538 57.2725V63H217.131V57.2642C217.131 56.8657 217.076 56.5558 216.965 56.3345C216.854 56.1131 216.691 55.9582 216.475 55.8696C216.265 55.7756 216.005 55.7285 215.695 55.7285C215.374 55.7285 215.095 55.7922 214.857 55.9194C214.624 56.0467 214.431 56.2238 214.276 56.4507C214.126 56.672 214.013 56.9321 213.935 57.231C213.858 57.5298 213.819 57.8507 213.819 58.1938ZM230.037 60.9746V56.9736C230.037 56.6859 229.99 56.4396 229.896 56.2349C229.802 56.0246 229.655 55.8613 229.456 55.7451C229.263 55.6289 229.011 55.5708 228.701 55.5708C228.435 55.5708 228.206 55.6178 228.012 55.7119C227.818 55.8005 227.669 55.9305 227.564 56.1021C227.459 56.2681 227.406 56.4645 227.406 56.6914H225.015C225.015 56.3096 225.104 55.9471 225.281 55.604C225.458 55.2609 225.715 54.9593 226.053 54.6992C226.39 54.4336 226.792 54.2261 227.257 54.0767C227.727 53.9272 228.253 53.8525 228.834 53.8525C229.531 53.8525 230.151 53.9688 230.693 54.2012C231.235 54.4336 231.661 54.7822 231.971 55.2471C232.287 55.7119 232.445 56.293 232.445 56.9902V60.8335C232.445 61.326 232.475 61.73 232.536 62.0454C232.597 62.3553 232.685 62.6265 232.801 62.8589V63H230.386C230.27 62.7565 230.181 62.4521 230.12 62.0869C230.065 61.7161 230.037 61.3454 230.037 60.9746ZM230.353 57.5298L230.369 58.8828H229.033C228.717 58.8828 228.444 58.9188 228.211 58.9907C227.979 59.0627 227.788 59.165 227.638 59.2979C227.489 59.4251 227.378 59.5745 227.306 59.7461C227.24 59.9176 227.207 60.1058 227.207 60.3105C227.207 60.5153 227.254 60.7007 227.348 60.8667C227.442 61.0272 227.578 61.1545 227.755 61.2485C227.932 61.3371 228.139 61.3813 228.377 61.3813C228.737 61.3813 229.05 61.3094 229.315 61.1655C229.581 61.0216 229.786 60.8446 229.929 60.6343C230.079 60.424 230.156 60.2248 230.162 60.0366L230.793 61.0493C230.704 61.2762 230.582 61.5114 230.427 61.7549C230.278 61.9984 230.087 62.228 229.855 62.4438C229.622 62.6541 229.343 62.8285 229.016 62.9668C228.69 63.0996 228.302 63.166 227.854 63.166C227.284 63.166 226.767 63.0526 226.302 62.8257C225.843 62.5933 225.477 62.2751 225.206 61.8711C224.941 61.4616 224.808 60.9967 224.808 60.4766C224.808 60.0062 224.896 59.5884 225.073 59.2231C225.251 58.8579 225.511 58.5508 225.854 58.3018C226.202 58.0472 226.637 57.8563 227.157 57.729C227.677 57.5962 228.28 57.5298 228.967 57.5298H230.353ZM238.487 54.0186V55.7119H233.257V54.0186H238.487ZM234.552 51.8022H236.943V60.2939C236.943 60.554 236.976 60.7533 237.042 60.8916C237.114 61.0299 237.219 61.1268 237.358 61.1821C237.496 61.2319 237.67 61.2568 237.881 61.2568C238.03 61.2568 238.163 61.2513 238.279 61.2402C238.401 61.2236 238.503 61.207 238.586 61.1904L238.595 62.9502C238.39 63.0166 238.169 63.0692 237.931 63.1079C237.693 63.1466 237.43 63.166 237.142 63.166C236.616 63.166 236.157 63.0802 235.764 62.9087C235.377 62.7316 235.078 62.4494 234.868 62.062C234.657 61.6746 234.552 61.1655 234.552 60.5347V51.8022ZM253.41 56.6831V61.4727C253.222 61.6995 252.931 61.9458 252.538 62.2114C252.145 62.4715 251.639 62.6956 251.019 62.8838C250.4 63.0719 249.65 63.166 248.77 63.166C247.99 63.166 247.278 63.0387 246.637 62.7842C245.995 62.5241 245.441 62.145 244.976 61.647C244.517 61.1489 244.163 60.5402 243.914 59.8208C243.665 59.0959 243.54 58.2686 243.54 57.3389V56.5835C243.54 55.6538 243.659 54.8265 243.897 54.1016C244.141 53.3766 244.487 52.7651 244.935 52.2671C245.383 51.769 245.917 51.39 246.537 51.1299C247.157 50.8698 247.846 50.7397 248.604 50.7397C249.655 50.7397 250.519 50.9113 251.194 51.2544C251.869 51.592 252.383 52.0623 252.738 52.6655C253.097 53.2632 253.319 53.9494 253.402 54.7241H250.986C250.925 54.3146 250.809 53.9577 250.637 53.6533C250.466 53.349 250.22 53.111 249.899 52.9395C249.583 52.7679 249.174 52.6821 248.67 52.6821C248.255 52.6821 247.884 52.7679 247.558 52.9395C247.237 53.1055 246.966 53.3517 246.744 53.6782C246.523 54.0047 246.354 54.4087 246.238 54.8901C246.122 55.3716 246.064 55.9305 246.064 56.5669V57.3389C246.064 57.9697 246.125 58.5286 246.246 59.0156C246.368 59.4971 246.548 59.9038 246.786 60.2358C247.029 60.5623 247.328 60.8086 247.682 60.9746C248.037 61.1406 248.449 61.2236 248.919 61.2236C249.312 61.2236 249.639 61.1904 249.899 61.124C250.164 61.0576 250.377 60.9774 250.538 60.8833C250.704 60.7837 250.831 60.6896 250.92 60.6011V58.4595H248.645V56.6831H253.41ZM257.46 55.9775V63H255.069V54.0186H257.319L257.46 55.9775ZM260.166 53.9604L260.125 56.1768C260.008 56.1602 259.867 56.1463 259.701 56.1353C259.541 56.1187 259.394 56.1104 259.261 56.1104C258.924 56.1104 258.63 56.1546 258.381 56.2432C258.138 56.3262 257.933 56.4507 257.767 56.6167C257.607 56.7827 257.485 56.9847 257.402 57.2227C257.324 57.4606 257.28 57.7318 257.269 58.0361L256.788 57.8867C256.788 57.3057 256.846 56.7716 256.962 56.2847C257.078 55.7922 257.247 55.3633 257.468 54.998C257.695 54.6328 257.972 54.3506 258.298 54.1514C258.625 53.9521 258.998 53.8525 259.419 53.8525C259.552 53.8525 259.687 53.8636 259.826 53.8857C259.964 53.9023 260.077 53.9272 260.166 53.9604ZM265.063 63.166C264.365 63.166 263.74 63.0553 263.187 62.834C262.633 62.6071 262.163 62.2944 261.776 61.896C261.394 61.4976 261.1 61.0355 260.896 60.5098C260.691 59.9785 260.589 59.4141 260.589 58.8164V58.4844C260.589 57.8037 260.685 57.1812 260.879 56.6167C261.073 56.0522 261.349 55.5625 261.709 55.1475C262.074 54.7324 262.517 54.4142 263.037 54.1929C263.557 53.966 264.144 53.8525 264.797 53.8525C265.433 53.8525 265.998 53.9577 266.49 54.168C266.983 54.3783 267.395 54.6771 267.727 55.0645C268.065 55.4518 268.319 55.9167 268.491 56.459C268.662 56.9958 268.748 57.5934 268.748 58.252V59.248H261.61V57.6543H266.399V57.4717C266.399 57.1396 266.338 56.8436 266.217 56.5835C266.1 56.3179 265.923 56.1076 265.685 55.9526C265.447 55.7977 265.143 55.7202 264.772 55.7202C264.457 55.7202 264.186 55.7894 263.959 55.9277C263.732 56.0661 263.546 56.2598 263.403 56.5088C263.264 56.7578 263.159 57.0511 263.087 57.3887C263.021 57.7207 262.988 58.0859 262.988 58.4844V58.8164C262.988 59.1761 263.037 59.5081 263.137 59.8125C263.242 60.1169 263.389 60.3797 263.577 60.6011C263.771 60.8224 264.003 60.994 264.274 61.1157C264.551 61.2375 264.863 61.2983 265.212 61.2983C265.644 61.2983 266.045 61.2153 266.416 61.0493C266.792 60.8778 267.116 60.6204 267.387 60.2773L268.549 61.5391C268.361 61.8102 268.104 62.0703 267.777 62.3193C267.456 62.5684 267.069 62.7731 266.615 62.9336C266.161 63.0885 265.644 63.166 265.063 63.166ZM274.043 63.166C273.346 63.166 272.721 63.0553 272.167 62.834C271.614 62.6071 271.144 62.2944 270.756 61.896C270.374 61.4976 270.081 61.0355 269.876 60.5098C269.672 59.9785 269.569 59.4141 269.569 58.8164V58.4844C269.569 57.8037 269.666 57.1812 269.86 56.6167C270.053 56.0522 270.33 55.5625 270.69 55.1475C271.055 54.7324 271.498 54.4142 272.018 54.1929C272.538 53.966 273.125 53.8525 273.778 53.8525C274.414 53.8525 274.979 53.9577 275.471 54.168C275.964 54.3783 276.376 54.6771 276.708 55.0645C277.045 55.4518 277.3 55.9167 277.472 56.459C277.643 56.9958 277.729 57.5934 277.729 58.252V59.248H270.59V57.6543H275.38V57.4717C275.38 57.1396 275.319 56.8436 275.197 56.5835C275.081 56.3179 274.904 56.1076 274.666 55.9526C274.428 55.7977 274.124 55.7202 273.753 55.7202C273.437 55.7202 273.166 55.7894 272.939 55.9277C272.712 56.0661 272.527 56.2598 272.383 56.5088C272.245 56.7578 272.14 57.0511 272.068 57.3887C272.001 57.7207 271.968 58.0859 271.968 58.4844V58.8164C271.968 59.1761 272.018 59.5081 272.118 59.8125C272.223 60.1169 272.369 60.3797 272.558 60.6011C272.751 60.8224 272.984 60.994 273.255 61.1157C273.531 61.2375 273.844 61.2983 274.193 61.2983C274.624 61.2983 275.026 61.2153 275.396 61.0493C275.773 60.8778 276.096 60.6204 276.368 60.2773L277.53 61.5391C277.342 61.8102 277.084 62.0703 276.758 62.3193C276.437 62.5684 276.049 62.7731 275.596 62.9336C275.142 63.0885 274.624 63.166 274.043 63.166ZM281.231 55.936V63H278.84V54.0186H281.082L281.231 55.936ZM280.882 58.1938H280.235C280.235 57.5298 280.321 56.9321 280.492 56.4009C280.664 55.8641 280.905 55.4076 281.214 55.0312C281.524 54.6494 281.892 54.3589 282.318 54.1597C282.75 53.9549 283.232 53.8525 283.763 53.8525C284.183 53.8525 284.568 53.9134 284.917 54.0352C285.265 54.1569 285.564 54.3506 285.813 54.6162C286.068 54.8818 286.261 55.2332 286.394 55.6704C286.532 56.1076 286.602 56.6416 286.602 57.2725V63H284.194V57.2642C284.194 56.8657 284.139 56.5558 284.028 56.3345C283.918 56.1131 283.754 55.9582 283.539 55.8696C283.328 55.7756 283.068 55.7285 282.758 55.7285C282.437 55.7285 282.158 55.7922 281.92 55.9194C281.688 56.0467 281.494 56.2238 281.339 56.4507C281.19 56.672 281.076 56.9321 280.999 57.231C280.921 57.5298 280.882 57.8507 280.882 58.1938ZM292.353 63.166C291.656 63.166 291.031 63.0553 290.477 62.834C289.924 62.6071 289.454 62.2944 289.066 61.896C288.684 61.4976 288.391 61.0355 288.186 60.5098C287.982 59.9785 287.879 59.4141 287.879 58.8164V58.4844C287.879 57.8037 287.976 57.1812 288.17 56.6167C288.363 56.0522 288.64 55.5625 289 55.1475C289.365 54.7324 289.808 54.4142 290.328 54.1929C290.848 53.966 291.435 53.8525 292.088 53.8525C292.724 53.8525 293.289 53.9577 293.781 54.168C294.274 54.3783 294.686 54.6771 295.018 55.0645C295.355 55.4518 295.61 55.9167 295.782 56.459C295.953 56.9958 296.039 57.5934 296.039 58.252V59.248H288.9V57.6543H293.69V57.4717C293.69 57.1396 293.629 56.8436 293.507 56.5835C293.391 56.3179 293.214 56.1076 292.976 55.9526C292.738 55.7977 292.434 55.7202 292.063 55.7202C291.747 55.7202 291.476 55.7894 291.249 55.9277C291.022 56.0661 290.837 56.2598 290.693 56.5088C290.555 56.7578 290.45 57.0511 290.378 57.3887C290.311 57.7207 290.278 58.0859 290.278 58.4844V58.8164C290.278 59.1761 290.328 59.5081 290.428 59.8125C290.533 60.1169 290.679 60.3797 290.867 60.6011C291.061 60.8224 291.294 60.994 291.565 61.1157C291.841 61.2375 292.154 61.2983 292.503 61.2983C292.934 61.2983 293.336 61.2153 293.706 61.0493C294.083 60.8778 294.406 60.6204 294.678 60.2773L295.84 61.5391C295.651 61.8102 295.394 62.0703 295.068 62.3193C294.747 62.5684 294.359 62.7731 293.906 62.9336C293.452 63.0885 292.934 63.166 292.353 63.166ZM299.591 55.9775V63H297.2V54.0186H299.45L299.591 55.9775ZM302.297 53.9604L302.255 56.1768C302.139 56.1602 301.998 56.1463 301.832 56.1353C301.672 56.1187 301.525 56.1104 301.392 56.1104C301.055 56.1104 300.761 56.1546 300.512 56.2432C300.269 56.3262 300.064 56.4507 299.898 56.6167C299.737 56.7827 299.616 56.9847 299.533 57.2227C299.455 57.4606 299.411 57.7318 299.4 58.0361L298.918 57.8867C298.918 57.3057 298.977 56.7716 299.093 56.2847C299.209 55.7922 299.378 55.3633 299.599 54.998C299.826 54.6328 300.103 54.3506 300.429 54.1514C300.756 53.9521 301.129 53.8525 301.55 53.8525C301.683 53.8525 301.818 53.8636 301.957 53.8857C302.095 53.9023 302.208 53.9272 302.297 53.9604Z" fill="white"/>
</g>
<defs>
<filter id="filter0_d_1_197" x="-54" y="0" width="459" height="207" filterUnits="userSpaceOnUse" color-interpolation-filters="sRGB">
<feFlood flood-opacity="0" result="BackgroundImageFix"/>
<feColorMatrix in="SourceAlpha" type="matrix" values="0 0 0 0 0 0 0 0 0 0 0 0 0 0 0 0 0 0 127 0" result="hardAlpha"/>
<feMorphology radius="10" operator="erode" in="SourceAlpha" result="effect1_dropShadow_1_197"/>
<feOffset dy="62"/>
<feGaussianBlur stdDeviation="32"/>
<feColorMatrix type="matrix" values="0 0 0 0 0.00392157 0 0 0 0 0.0901961 0 0 0 0 0.188235 0 0 0 0.116013 0"/>
<feBlend mode="normal" in2="BackgroundImageFix" result="effect1_dropShadow_1_197"/>
<feBlend mode="normal" in="SourceGraphic" in2="effect1_dropShadow_1_197" result="shape"/>
</filter>
<clipPath id="clip0_1_197">
<rect width="351" height="91" fill="white"/>
</clipPath>
</defs>
</svg>
